<svg xmlns="http://www.w3.org/2000/svg" width="693.75" viewBox="0 0 693.75 134.25" height="134.25" version="1.0"><defs><clipPath id="a"><path d="M 1.804688 0 L 691.699219 0 L 691.699219 133.503906 L 1.804688 133.503906 Z M 1.804688 0"/></clipPath><clipPath id="b"><path d="M 561 1 L 691.699219 1 L 691.699219 132 L 561 132 Z M 561 1"/></clipPath><clipPath id="c"><path d="M 17 0 L 691.699219 0 L 691.699219 5 L 17 5 Z M 17 0"/></clipPath><clipPath id="d"><path d="M 21 0 L 293 0 L 293 133.503906 L 21 133.503906 Z M 21 0"/></clipPath><clipPath id="e"><path d="M 1.804688 0 L 26 0 L 26 133.503906 L 1.804688 133.503906 Z M 1.804688 0"/></clipPath><clipPath id="f"><path d="M 21 129 L 691.699219 129 L 691.699219 133.503906 L 21 133.503906 Z M 21 129"/></clipPath></defs><g clip-path="url(#a)" fill="#FFF"><path d="M 1.804688 0 L 691.945312 0 L 691.945312 141.011719 L 1.804688 141.011719 Z M 1.804688 0"/><path d="M 1.804688 0 L 691.945312 0 L 691.945312 133.550781 L 1.804688 133.550781 Z M 1.804688 0"/><path d="M 1.804688 0 L 691.945312 0 L 691.945312 133.550781 L 1.804688 133.550781 Z M 1.804688 0"/></g><g clip-path="url(#b)"><path fill="#005C27" d="M 561.328125 1.347656 L 691.894531 1.347656 L 691.894531 131.167969 L 561.328125 131.167969 L 561.328125 1.347656"/></g><g fill="#005C27"><g><g><path d="M 34.828125 1.015625 C 31.203125 1.015625 27.890625 0.347656 24.890625 -0.984375 C 21.898438 -2.328125 19.390625 -4.382812 17.359375 -7.15625 L 16.75 -7.15625 C 17.15625 -3.90625 17.359375 -0.828125 17.359375 2.078125 L 17.359375 24.984375 L 8.9375 24.984375 L 8.9375 -55.640625 L 15.78125 -55.640625 L 16.953125 -48.03125 L 17.359375 -48.03125 C 19.523438 -51.070312 22.046875 -53.269531 24.921875 -54.625 C 27.796875 -55.976562 31.097656 -56.65625 34.828125 -56.65625 C 42.203125 -56.65625 47.894531 -54.132812 51.90625 -49.09375 C 55.914062 -44.050781 57.921875 -36.976562 57.921875 -27.875 C 57.921875 -18.726562 55.878906 -11.625 51.796875 -6.5625 C 47.722656 -1.507812 42.066406 1.015625 34.828125 1.015625 Z M 33.609375 -49.5 C 27.921875 -49.5 23.804688 -47.921875 21.265625 -44.765625 C 18.734375 -41.617188 17.429688 -36.613281 17.359375 -29.75 L 17.359375 -27.875 C 17.359375 -20.050781 18.660156 -14.457031 21.265625 -11.09375 C 23.878906 -7.726562 28.0625 -6.046875 33.8125 -6.046875 C 38.613281 -6.046875 42.375 -7.988281 45.09375 -11.875 C 47.820312 -15.769531 49.1875 -21.132812 49.1875 -27.96875 C 49.1875 -34.90625 47.820312 -40.226562 45.09375 -43.9375 C 42.375 -47.644531 38.546875 -49.5 33.609375 -49.5 Z M 33.609375 -49.5" transform="translate(296.604 97.7)"/></g></g></g><g fill="#005C27"><g><g><path d="M 56.953125 -27.875 C 56.953125 -18.800781 54.664062 -11.71875 50.09375 -6.625 C 45.53125 -1.53125 39.222656 1.015625 31.171875 1.015625 C 26.191406 1.015625 21.773438 -0.148438 17.921875 -2.484375 C 14.066406 -4.816406 11.085938 -8.164062 8.984375 -12.53125 C 6.890625 -16.90625 5.84375 -22.019531 5.84375 -27.875 C 5.84375 -36.9375 8.109375 -44 12.640625 -49.0625 C 17.171875 -54.125 23.46875 -56.65625 31.53125 -56.65625 C 39.3125 -56.65625 45.492188 -54.066406 50.078125 -48.890625 C 54.660156 -43.710938 56.953125 -36.707031 56.953125 -27.875 Z M 14.5625 -27.875 C 14.5625 -20.757812 15.984375 -15.34375 18.828125 -11.625 C 21.671875 -7.90625 25.851562 -6.046875 31.375 -6.046875 C 36.882812 -6.046875 41.070312 -7.894531 43.9375 -11.59375 C 46.800781 -15.300781 48.234375 -20.726562 48.234375 -27.875 C 48.234375 -34.945312 46.800781 -40.316406 43.9375 -43.984375 C 41.070312 -47.660156 36.847656 -49.5 31.265625 -49.5 C 25.753906 -49.5 21.59375 -47.6875 18.78125 -44.0625 C 15.96875 -40.445312 14.5625 -35.050781 14.5625 -27.875 Z M 14.5625 -27.875" transform="translate(360.313 97.7)"/></g></g></g><g fill="#005C27"><g><g><path d="M 17.359375 0 L 8.9375 0 L 8.9375 -55.640625 L 17.359375 -55.640625 Z M 8.21875 -70.71875 C 8.21875 -72.644531 8.691406 -74.054688 9.640625 -74.953125 C 10.585938 -75.847656 11.773438 -76.296875 13.203125 -76.296875 C 14.554688 -76.296875 15.722656 -75.835938 16.703125 -74.921875 C 17.679688 -74.015625 18.171875 -72.613281 18.171875 -70.71875 C 18.171875 -68.820312 17.679688 -67.40625 16.703125 -66.46875 C 15.722656 -65.539062 14.554688 -65.078125 13.203125 -65.078125 C 11.773438 -65.078125 10.585938 -65.539062 9.640625 -66.46875 C 8.691406 -67.40625 8.21875 -68.820312 8.21875 -70.71875 Z M 8.21875 -70.71875" transform="translate(423.108 97.7)"/></g></g></g><g fill="#005C27"><g><g><path d="M 47.015625 0 L 47.015625 -36 C 47.015625 -40.53125 45.976562 -43.910156 43.90625 -46.140625 C 41.84375 -48.378906 38.613281 -49.5 34.21875 -49.5 C 28.394531 -49.5 24.128906 -47.921875 21.421875 -44.765625 C 18.710938 -41.617188 17.359375 -36.425781 17.359375 -29.1875 L 17.359375 0 L 8.9375 0 L 8.9375 -55.640625 L 15.78125 -55.640625 L 17.15625 -48.03125 L 17.5625 -48.03125 C 19.289062 -50.769531 21.710938 -52.890625 24.828125 -54.390625 C 27.941406 -55.898438 31.410156 -56.65625 35.234375 -56.65625 C 41.929688 -56.65625 46.972656 -55.035156 50.359375 -51.796875 C 53.742188 -48.566406 55.4375 -43.398438 55.4375 -36.296875 L 55.4375 0 Z M 47.015625 0" transform="translate(449.403 97.7)"/></g></g></g><g fill="#005C27"><g><g><path d="M 26.90625 -5.9375 C 28.394531 -5.9375 29.832031 -6.046875 31.21875 -6.265625 C 32.601562 -6.484375 33.703125 -6.710938 34.515625 -6.953125 L 34.515625 -0.5 C 33.609375 -0.0625 32.265625 0.296875 30.484375 0.578125 C 28.703125 0.867188 27.101562 1.015625 25.6875 1.015625 C 14.925781 1.015625 9.546875 -4.648438 9.546875 -15.984375 L 9.546875 -49.09375 L 1.578125 -49.09375 L 1.578125 -53.15625 L 9.546875 -56.65625 L 13.09375 -68.53125 L 17.96875 -68.53125 L 17.96875 -55.640625 L 34.109375 -55.640625 L 34.109375 -49.09375 L 17.96875 -49.09375 L 17.96875 -16.34375 C 17.96875 -13 18.765625 -10.425781 20.359375 -8.625 C 21.953125 -6.832031 24.132812 -5.9375 26.90625 -5.9375 Z M 26.90625 -5.9375" transform="translate(513.214 97.7)"/></g></g></g><g clip-path="url(#c)"><path stroke-linecap="round" transform="matrix(5.22316 0 0 5.22271 17.275 1.804)" fill="none" d="M 0.500119 0.000202111 L 131.060519 0.000202111" stroke="#005C27"/></g><path fill="#80BF9B" d="M 626.476562 1.347656 C 596.808594 1.347656 572.757812 25.398438 572.757812 55.066406 C 572.757812 84.734375 596.808594 108.785156 626.476562 108.785156 C 656.144531 108.785156 680.195312 84.734375 680.195312 55.066406 C 680.195312 25.398438 656.144531 1.347656 626.476562 1.347656"/><g fill="#FFF"><g><g><path d="M 10 0 L 86.042969 0 L 86.042969 -11.113281 L 36.832031 -11.113281 L 74.453125 -48.417969 C 81.441406 -55.402344 84.933594 -63.816406 84.933594 -73.660156 C 84.933594 -83.660156 81.28125 -92.074219 74.136719 -99.0625 C 66.835938 -106.046875 58.261719 -109.699219 48.417969 -109.699219 C 37.941406 -109.699219 29.210938 -105.886719 21.90625 -98.585938 C 14.765625 -91.28125 11.429688 -82.390625 11.90625 -72.074219 L 23.175781 -72.074219 C 22.542969 -78.742188 24.765625 -84.773438 29.84375 -90.328125 C 34.765625 -95.570312 40.800781 -98.265625 47.941406 -98.265625 C 54.769531 -98.265625 60.644531 -95.886719 65.5625 -91.125 C 70.484375 -86.203125 73.027344 -80.488281 73.027344 -73.820312 C 73.027344 -66.835938 70.644531 -61.121094 65.882812 -56.355469 Z M 10 0" transform="translate(579.332 122.304)"/></g></g></g><path fill="#005C27" d="M 627.609375 34.558594 C 620.8125 34.558594 615.300781 40.070312 615.300781 46.871094 C 615.300781 53.671875 620.8125 59.183594 627.609375 59.183594 C 634.410156 59.183594 639.921875 53.671875 639.921875 46.871094 C 639.921875 40.070312 634.410156 34.558594 627.609375 34.558594"/><g clip-path="url(#d)"><path fill="#005C27" d="M 21.394531 -1.585938 L 292.972656 -1.585938 L 292.972656 133.457031 L 21.394531 133.457031 L 21.394531 -1.585938"/></g><g clip-path="url(#e)"><path fill="#005C27" d="M -48.855469 -0.28125 L 25.007812 -0.28125 L 25.007812 134.019531 L -48.855469 134.019531 L -48.855469 -0.28125"/></g><g fill="#FFF"><g><g><path d="M 56.25 0 L 4.25 0 L 4.25 -6.875 L 44.390625 -67.734375 L 5.484375 -67.734375 L 5.484375 -75.640625 L 55.109375 -75.640625 L 55.109375 -68.765625 L 14.953125 -7.96875 L 56.25 -7.96875 Z M 56.25 0" transform="translate(14.405 107.136)"/></g></g></g><g fill="#FFF"><g><g><path d="M 52.578125 0 L 10.40625 0 L 10.40625 -75.640625 L 52.578125 -75.640625 L 52.578125 -67.828125 L 19.203125 -67.828125 L 19.203125 -43.46875 L 50.546875 -43.46875 L 50.546875 -35.703125 L 19.203125 -35.703125 L 19.203125 -7.859375 L 52.578125 -7.859375 Z M 52.578125 0" transform="translate(74.886 107.136)"/></g></g></g><g fill="#FFF"><g><g><path d="M 19.203125 -31.453125 L 19.203125 0 L 10.40625 0 L 10.40625 -75.640625 L 31.15625 -75.640625 C 40.425781 -75.640625 47.273438 -73.863281 51.703125 -70.3125 C 56.140625 -66.757812 58.359375 -61.414062 58.359375 -54.28125 C 58.359375 -44.269531 53.289062 -37.507812 43.15625 -34 L 63.6875 0 L 53.296875 0 L 34.984375 -31.453125 Z M 19.203125 -39.015625 L 31.25 -39.015625 C 37.457031 -39.015625 42.007812 -40.242188 44.90625 -42.703125 C 47.8125 -45.171875 49.265625 -48.875 49.265625 -53.8125 C 49.265625 -58.8125 47.785156 -62.414062 44.828125 -64.625 C 41.878906 -66.832031 37.144531 -67.9375 30.625 -67.9375 L 19.203125 -67.9375 Z M 19.203125 -39.015625" transform="translate(133.816 107.136)"/></g></g></g><g fill="#FFF"><g><g><path d="M 76.0625 -37.921875 C 76.0625 -25.816406 73 -16.296875 66.875 -9.359375 C 60.75 -2.429688 52.238281 1.03125 41.34375 1.03125 C 30.195312 1.03125 21.597656 -2.375 15.546875 -9.1875 C 9.492188 -16 6.46875 -25.613281 6.46875 -38.03125 C 6.46875 -50.34375 9.503906 -59.890625 15.578125 -66.671875 C 21.648438 -73.453125 30.273438 -76.84375 41.453125 -76.84375 C 52.316406 -76.84375 60.800781 -73.390625 66.90625 -66.484375 C 73.007812 -59.585938 76.0625 -50.066406 76.0625 -37.921875 Z M 15.78125 -37.921875 C 15.78125 -27.679688 17.960938 -19.910156 22.328125 -14.609375 C 26.691406 -9.316406 33.03125 -6.671875 41.34375 -6.671875 C 49.726562 -6.671875 56.054688 -9.3125 60.328125 -14.59375 C 64.609375 -19.875 66.75 -27.648438 66.75 -37.921875 C 66.75 -48.097656 64.617188 -55.816406 60.359375 -61.078125 C 56.097656 -66.335938 49.796875 -68.96875 41.453125 -68.96875 C 33.066406 -68.96875 26.691406 -66.320312 22.328125 -61.03125 C 17.960938 -55.738281 15.78125 -48.035156 15.78125 -37.921875 Z M 15.78125 -37.921875" transform="translate(199.316 107.136)"/></g></g></g><g clip-path="url(#f)"><path stroke-linecap="round" transform="matrix(5.22325 0 0 5.22271 21.393 131.742)" fill="none" d="M 0.499784 0.0000680936 L 128.916646 0.0000680936" stroke="#005C27"/></g></svg>