<svg xmlns="http://www.w3.org/2000/svg" width="693.75" viewBox="0 0 693.75 134.25" height="134.25" version="1.0"><defs><clipPath id="a"><path d="M 1.804688 0 L 691.699219 0 L 691.699219 133.503906 L 1.804688 133.503906 Z M 1.804688 0"/></clipPath><clipPath id="b"><path d="M 562 1 L 691.699219 1 L 691.699219 132 L 562 132 Z M 562 1"/></clipPath><clipPath id="c"><path d="M 17 0 L 691.699219 0 L 691.699219 5 L 17 5 Z M 17 0"/></clipPath><clipPath id="d"><path d="M 21 0 L 294 0 L 294 133.503906 L 21 133.503906 Z M 21 0"/></clipPath><clipPath id="e"><path d="M 21 129 L 691.699219 129 L 691.699219 133.503906 L 21 133.503906 Z M 21 129"/></clipPath><clipPath id="f"><path d="M 1.804688 0 L 72 0 L 72 133.503906 L 1.804688 133.503906 Z M 1.804688 0"/></clipPath></defs><g clip-path="url(#a)" fill="#FFF"><path d="M 1.804688 0 L 691.945312 0 L 691.945312 141.011719 L 1.804688 141.011719 Z M 1.804688 0"/><path d="M 1.804688 0 L 691.945312 0 L 691.945312 133.550781 L 1.804688 133.550781 Z M 1.804688 0"/><path d="M 1.804688 0 L 691.945312 0 L 691.945312 133.550781 L 1.804688 133.550781 Z M 1.804688 0"/></g><g clip-path="url(#b)"><path fill="#013919" d="M 562.617188 1.226562 L 693.175781 1.226562 L 693.175781 131.792969 L 562.617188 131.792969 L 562.617188 1.226562"/></g><g clip-path="url(#c)"><path stroke-linecap="round" transform="matrix(5.22244 0 0 5.22271 17.457 1.679)" fill="none" d="M 0.499656 0.000205622 L 128.934957 0.000205622" stroke="#013919"/></g><path fill="#80BF9B" d="M 628.15625 1.226562 C 598.28125 1.226562 574.0625 25.445312 574.0625 55.316406 C 574.0625 85.191406 598.28125 109.410156 628.15625 109.410156 C 658.027344 109.410156 682.246094 85.191406 682.246094 55.316406 C 682.246094 25.445312 658.027344 1.226562 628.15625 1.226562"/><g fill="#FFF"><g><g><path d="M 10.023438 0 L 86.21875 0 L 86.21875 -11.136719 L 36.90625 -11.136719 L 74.605469 -48.515625 C 81.605469 -55.515625 85.105469 -63.945312 85.105469 -73.808594 C 85.105469 -83.832031 81.445312 -92.261719 74.285156 -99.261719 C 66.96875 -106.261719 58.378906 -109.917969 48.515625 -109.917969 C 38.019531 -109.917969 29.269531 -106.101562 21.953125 -98.785156 C 14.792969 -91.464844 11.453125 -82.558594 11.929688 -72.21875 L 23.222656 -72.21875 C 22.589844 -78.898438 24.816406 -84.945312 29.90625 -90.511719 C 34.835938 -95.761719 40.882812 -98.464844 48.039062 -98.464844 C 54.878906 -98.464844 60.765625 -96.078125 65.695312 -91.308594 C 70.628906 -86.375 73.171875 -80.648438 73.171875 -73.96875 C 73.171875 -66.96875 70.789062 -61.242188 66.015625 -56.472656 Z M 10.023438 0" transform="translate(580.65 122.428)"/></g></g></g><g fill="#013919"><g><g><path d="M 34.90625 1.015625 C 31.269531 1.015625 27.953125 0.347656 24.953125 -0.984375 C 21.953125 -2.328125 19.4375 -4.390625 17.40625 -7.171875 L 16.78125 -7.171875 C 17.195312 -3.921875 17.40625 -0.835938 17.40625 2.078125 L 17.40625 25.03125 L 8.953125 25.03125 L 8.953125 -55.75 L 15.828125 -55.75 L 16.984375 -48.125 L 17.40625 -48.125 C 19.570312 -51.175781 22.09375 -53.378906 24.96875 -54.734375 C 27.851562 -56.097656 31.164062 -56.78125 34.90625 -56.78125 C 42.289062 -56.78125 47.992188 -54.25 52.015625 -49.1875 C 56.035156 -44.132812 58.046875 -37.046875 58.046875 -27.921875 C 58.046875 -18.765625 56 -11.648438 51.90625 -6.578125 C 47.820312 -1.515625 42.15625 1.015625 34.90625 1.015625 Z M 33.671875 -49.59375 C 27.972656 -49.59375 23.851562 -48.015625 21.3125 -44.859375 C 18.769531 -41.710938 17.46875 -36.695312 17.40625 -29.8125 L 17.40625 -27.921875 C 17.40625 -20.085938 18.707031 -14.484375 21.3125 -11.109375 C 23.925781 -7.734375 28.113281 -6.046875 33.875 -6.046875 C 38.695312 -6.046875 42.472656 -7.992188 45.203125 -11.890625 C 47.929688 -15.796875 49.296875 -21.175781 49.296875 -28.03125 C 49.296875 -34.976562 47.929688 -40.304688 45.203125 -44.015625 C 42.472656 -47.734375 38.628906 -49.59375 33.671875 -49.59375 Z M 33.671875 -49.59375" transform="translate(297.342 97.915)"/></g></g></g><g fill="#013919"><g><g><path d="M 57.078125 -27.921875 C 57.078125 -18.835938 54.785156 -11.742188 50.203125 -6.640625 C 45.628906 -1.535156 39.304688 1.015625 31.234375 1.015625 C 26.242188 1.015625 21.816406 -0.148438 17.953125 -2.484375 C 14.085938 -4.828125 11.101562 -8.1875 9 -12.5625 C 6.894531 -16.9375 5.84375 -22.054688 5.84375 -27.921875 C 5.84375 -37.015625 8.113281 -44.097656 12.65625 -49.171875 C 17.207031 -54.242188 23.519531 -56.78125 31.59375 -56.78125 C 39.394531 -56.78125 45.59375 -54.179688 50.1875 -48.984375 C 54.78125 -43.796875 57.078125 -36.773438 57.078125 -27.921875 Z M 14.59375 -27.921875 C 14.59375 -20.804688 16.015625 -15.378906 18.859375 -11.640625 C 21.710938 -7.910156 25.90625 -6.046875 31.4375 -6.046875 C 36.96875 -6.046875 41.164062 -7.898438 44.03125 -11.609375 C 46.894531 -15.328125 48.328125 -20.765625 48.328125 -27.921875 C 48.328125 -35.015625 46.894531 -40.398438 44.03125 -44.078125 C 41.164062 -47.753906 36.9375 -49.59375 31.34375 -49.59375 C 25.8125 -49.59375 21.632812 -47.78125 18.8125 -44.15625 C 16 -40.53125 14.59375 -35.117188 14.59375 -27.921875 Z M 14.59375 -27.921875" transform="translate(361.181 97.915)"/></g></g></g><g fill="#013919"><g><g><path d="M 17.40625 0 L 8.953125 0 L 8.953125 -55.75 L 17.40625 -55.75 Z M 8.234375 -70.859375 C 8.234375 -72.796875 8.707031 -74.210938 9.65625 -75.109375 C 10.613281 -76.015625 11.804688 -76.46875 13.234375 -76.46875 C 14.585938 -76.46875 15.753906 -76.007812 16.734375 -75.09375 C 17.722656 -74.175781 18.21875 -72.765625 18.21875 -70.859375 C 18.21875 -68.960938 17.722656 -67.546875 16.734375 -66.609375 C 15.753906 -65.679688 14.585938 -65.21875 13.234375 -65.21875 C 11.804688 -65.21875 10.613281 -65.679688 9.65625 -66.609375 C 8.707031 -67.546875 8.234375 -68.960938 8.234375 -70.859375 Z M 8.234375 -70.859375" transform="translate(424.106 97.915)"/></g></g></g><g fill="#013919"><g><g><path d="M 47.109375 0 L 47.109375 -36.0625 C 47.109375 -40.613281 46.070312 -44.003906 44 -46.234375 C 41.9375 -48.472656 38.695312 -49.59375 34.28125 -49.59375 C 28.445312 -49.59375 24.175781 -48.015625 21.46875 -44.859375 C 18.757812 -41.710938 17.40625 -36.507812 17.40625 -29.25 L 17.40625 0 L 8.953125 0 L 8.953125 -55.75 L 15.828125 -55.75 L 17.1875 -48.125 L 17.609375 -48.125 C 19.335938 -50.875 21.757812 -53.003906 24.875 -54.515625 C 28 -56.023438 31.476562 -56.78125 35.3125 -56.78125 C 42.019531 -56.78125 47.066406 -55.160156 50.453125 -51.921875 C 53.847656 -48.679688 55.546875 -43.5 55.546875 -36.375 L 55.546875 0 Z M 47.109375 0" transform="translate(450.455 97.915)"/></g></g></g><g fill="#013919"><g><g><path d="M 26.96875 -5.953125 C 28.457031 -5.953125 29.894531 -6.0625 31.28125 -6.28125 C 32.675781 -6.5 33.78125 -6.726562 34.59375 -6.96875 L 34.59375 -0.515625 C 33.675781 -0.0664062 32.328125 0.296875 30.546875 0.578125 C 28.765625 0.867188 27.160156 1.015625 25.734375 1.015625 C 14.953125 1.015625 9.5625 -4.664062 9.5625 -16.03125 L 9.5625 -49.1875 L 1.578125 -49.1875 L 1.578125 -53.265625 L 9.5625 -56.78125 L 13.125 -68.671875 L 18.015625 -68.671875 L 18.015625 -55.75 L 34.1875 -55.75 L 34.1875 -49.1875 L 18.015625 -49.1875 L 18.015625 -16.375 C 18.015625 -13.019531 18.8125 -10.441406 20.40625 -8.640625 C 22 -6.847656 24.1875 -5.953125 26.96875 -5.953125 Z M 26.96875 -5.953125" transform="translate(514.397 97.915)"/></g></g></g><g clip-path="url(#d)"><path fill="#013919" d="M 21.589844 -1.710938 L 293.90625 -1.710938 L 293.90625 133.332031 L 21.589844 133.332031 L 21.589844 -1.710938"/></g><g clip-path="url(#e)"><path stroke-linecap="round" transform="matrix(5.22561 0 0 5.22271 21.584 131.88)" fill="none" d="M 0.499676 -0.000125484 L 128.144662 -0.000125484" stroke="#013919"/></g><path fill="#013919" d="M 629.003906 34.507812 C 622.203125 34.507812 616.691406 40.019531 616.691406 46.816406 C 616.691406 53.617188 622.203125 59.128906 629.003906 59.128906 C 635.800781 59.128906 641.3125 53.617188 641.3125 46.816406 C 641.3125 40.019531 635.800781 34.507812 629.003906 34.507812"/><g clip-path="url(#f)"><path fill="#013919" d="M 1.804688 -1.710938 L 71.191406 -1.710938 L 71.191406 134.820312 L 1.804688 134.820312 L 1.804688 -1.710938"/></g><g fill="#FFF"><g><g><path d="M 56.359375 0 L 4.25 0 L 4.25 -6.890625 L 44.484375 -67.859375 L 5.5 -67.859375 L 5.5 -75.796875 L 55.21875 -75.796875 L 55.21875 -68.890625 L 14.984375 -7.984375 L 56.359375 -7.984375 Z M 56.359375 0" transform="translate(14.581 107.229)"/></g></g></g><g fill="#FFF"><g><g><path d="M 52.671875 0 L 10.421875 0 L 10.421875 -75.796875 L 52.671875 -75.796875 L 52.671875 -67.96875 L 19.234375 -67.96875 L 19.234375 -43.546875 L 50.65625 -43.546875 L 50.65625 -35.765625 L 19.234375 -35.765625 L 19.234375 -7.875 L 52.671875 -7.875 Z M 52.671875 0" transform="translate(75.185 107.229)"/></g></g></g><g fill="#FFF"><g><g><path d="M 19.234375 -31.515625 L 19.234375 0 L 10.421875 0 L 10.421875 -75.796875 L 31.203125 -75.796875 C 40.503906 -75.796875 47.375 -74.015625 51.8125 -70.453125 C 56.257812 -66.890625 58.484375 -61.53125 58.484375 -54.375 C 58.484375 -44.351562 53.398438 -37.582031 43.234375 -34.0625 L 63.8125 0 L 53.390625 0 L 35.046875 -31.515625 Z M 19.234375 -39.09375 L 31.3125 -39.09375 C 37.53125 -39.09375 42.09375 -40.328125 45 -42.796875 C 47.90625 -45.265625 49.359375 -48.972656 49.359375 -53.921875 C 49.359375 -58.929688 47.878906 -62.539062 44.921875 -64.75 C 41.960938 -66.957031 37.21875 -68.0625 30.6875 -68.0625 L 19.234375 -68.0625 Z M 19.234375 -39.09375" transform="translate(134.234 107.229)"/></g></g></g><g fill="#FFF"><g><g><path d="M 76.203125 -38 C 76.203125 -25.863281 73.132812 -16.320312 67 -9.375 C 60.863281 -2.4375 52.335938 1.03125 41.421875 1.03125 C 30.253906 1.03125 21.640625 -2.378906 15.578125 -9.203125 C 9.515625 -16.023438 6.484375 -25.660156 6.484375 -38.109375 C 6.484375 -50.441406 9.523438 -60.003906 15.609375 -66.796875 C 21.691406 -73.585938 30.332031 -76.984375 41.53125 -76.984375 C 52.414062 -76.984375 60.914062 -73.523438 67.03125 -66.609375 C 73.144531 -59.703125 76.203125 -50.164062 76.203125 -38 Z M 15.8125 -38 C 15.8125 -27.738281 17.992188 -19.953125 22.359375 -14.640625 C 26.734375 -9.335938 33.085938 -6.6875 41.421875 -6.6875 C 49.816406 -6.6875 56.15625 -9.328125 60.4375 -14.609375 C 64.726562 -19.898438 66.875 -27.695312 66.875 -38 C 66.875 -48.195312 64.738281 -55.929688 60.46875 -61.203125 C 56.207031 -66.472656 49.894531 -69.109375 41.53125 -69.109375 C 33.125 -69.109375 26.734375 -66.453125 22.359375 -61.140625 C 17.992188 -55.835938 15.8125 -48.125 15.8125 -38 Z M 15.8125 -38" transform="translate(199.867 107.229)"/></g></g></g></svg>