<svg xmlns="http://www.w3.org/2000/svg" width="187.5" viewBox="0 0 187.5 187.5" height="187.5" version="1.0"><defs><clipPath id="a"><path d="M 0 0 L 187 0 L 187 187 L 0 187 Z M 0 0"/></clipPath></defs><g clip-path="url(#a)"><path fill="#FFF" d="M 0 0 L 187.5 0 L 187.5 194.25 L 0 194.25 Z M 0 0"/><path fill="#FFF" d="M 0 0 L 187.5 0 L 187.5 187.5 L 0 187.5 Z M 0 0"/><path fill="#80BF9B" d="M 0 0 L 187.5 0 L 187.5 187.5 L 0 187.5 Z M 0 0"/><path fill="#013919" d="M-18.75 -18.75H206.25V206.25H-18.75z"/></g><path fill="#80BF9B" d="M 93.242188 -1.734375 C 49.75 -1.734375 14.492188 33.523438 14.492188 77.015625 C 14.492188 120.507812 49.75 155.765625 93.242188 155.765625 C 136.734375 155.765625 171.992188 120.507812 171.992188 77.015625 C 171.992188 33.523438 136.734375 -1.734375 93.242188 -1.734375"/><g fill="#FFF"><g><g><path d="M 14.597656 0 L 125.589844 0 L 125.589844 -16.21875 L 53.757812 -16.21875 L 108.671875 -70.671875 C 118.867188 -80.867188 123.964844 -93.148438 123.964844 -107.515625 C 123.964844 -122.113281 118.636719 -134.394531 108.210938 -144.589844 C 97.550781 -154.785156 85.039062 -160.113281 70.671875 -160.113281 C 55.378906 -160.113281 42.636719 -154.550781 31.976562 -143.894531 C 21.550781 -133.234375 16.683594 -120.257812 17.378906 -105.199219 L 33.828125 -105.199219 C 32.902344 -114.929688 36.148438 -123.734375 43.5625 -131.84375 C 50.746094 -139.492188 59.550781 -143.429688 69.976562 -143.429688 C 79.941406 -143.429688 88.515625 -139.953125 95.695312 -133.003906 C 102.878906 -125.820312 106.585938 -117.476562 106.585938 -107.746094 C 106.585938 -97.550781 103.113281 -89.210938 96.160156 -82.257812 Z M 14.597656 0" transform="translate(24.088 174.815)"/></g></g></g><path fill="#013919" d="M 94.585938 46.746094 C 84.644531 46.746094 76.585938 54.804688 76.585938 64.746094 C 76.585938 74.6875 84.644531 82.746094 94.585938 82.746094 C 104.527344 82.746094 112.585938 74.6875 112.585938 64.746094 C 112.585938 54.804688 104.527344 46.746094 94.585938 46.746094"/></svg>